PathFileType  4	(X/Y/Z) C:\simtk\uwmodels\fbknee\data\invivovalid2\exp\aclc01\Files_W_HJCs
DataRate	CameraRate	NumFrames	NumMarkers	Units	OrigDataRate	OrigDataStartFrame	OrigNumFrames
  200.0      200.0        7         42 mm      200.0         258       515
Frame#	Time            R.Shoulder                       R.Clavicle                       R.Bicep                          R.Elbow                          R.Forearm                        R.Wrist                          L.Shoulder                       L.Clavicle                       L.Scapula                        L.Bicep                          L.Elbow                          L.Forearm                        L.Wrist                          R.ASIS                           R.PSIS                           S2                               L.PSIS                           L.ASIS                           R.TH1                            R.TH2                            R.TH3                            R.Knee                           R.SH1                            R.SH2                            R.SH3                            R.SH4                            R.Ankle                          R.Heel                           R.MT5                            L.TH1                            L.TH2                            L.TH3                            L.TH4                            L.Knee                           L.SH1                            L.SH2                            L.SH3                            L.Ankle                          L.Heel                           L.MT5                            R_HJC                            L_HJC                  
                     X1         Y1         Z1         X2         Y2         Z2         X3         Y3         Z3         X4         Y4         Z4         X5         Y5         Z5         X6         Y6         Z6         X7         Y7         Z7         X8         Y8         Z8         X9         Y9         Z9         X10         Y10         Z10         X11         Y11         Z11         X12         Y12         Z12         X13         Y13         Z13         X14         Y14         Z14         X15         Y15         Z15         X16         Y16         Z16         X17         Y17         Z17         X18         Y18         Z18         X19         Y19         Z19         X20         Y20         Z20         X21         Y21         Z21         X22         Y22         Z22         X23         Y23         Z23         X24         Y24         Z24         X25         Y25         Z25         X26         Y26         Z26         X27         Y27         Z27         X28         Y28         Z28         X29         Y29         Z29         X30         Y30         Z30         X31         Y31         Z31         X32         Y32         Z32         X33         Y33         Z33         X34         Y34         Z34         X35         Y35         Z35         X36         Y36         Z36         X37         Y37         Z37         X38         Y38         Z38         X39         Y39         Z39         X40         Y40         Z40         X41         Y41         Z41         X42         Y42         Z42         

	258	1.28500	25.171	42.789	1303.556	89.361	190.273	1287.825	42.664	27.151	1075.728	-65.937	-45.850	1007.703	27.870	-57.234	912.245	-2.242	-122.040	811.820	68.705	413.764	1298.164	99.726	245.594	1281.780	-77.962	330.673	1295.416	148.438	424.398	1162.517	175.868	519.935	1031.595	274.040	467.247	1031.401	366.357	477.447	961.682	114.695	97.917	857.679	-131.166	164.820	906.755	-140.019	215.720	908.238	-132.844	270.771	926.854	90.922	366.602	857.031	148.133	47.695	674.184	11.340	62.340	604.459	48.213	80.051	541.331	159.536	88.017	442.073	236.119	72.157	329.584	266.875	88.260	262.888	135.211	127.010	299.450	163.850	134.939	229.323	319.032	122.571	78.702	276.217	185.058	25.231	444.386	86.205	76.136	-14.341	401.591	597.359	-21.090	372.689	519.282	-158.051	386.425	623.094	-174.609	369.513	549.529	-151.637	376.846	457.962	-151.588	382.580	353.513	-247.659	369.580	404.116	-287.668	370.970	334.889	-317.829	357.021	92.374	-411.911	323.662	69.584	-233.448	371.335	21.987	15.853	133.548	807.051	-2.631	328.073	787.887
	259	1.29000	32.366	41.417	1302.266	96.691	189.044	1286.898	50.464	25.998	1074.931	-58.223	-46.325	1006.354	35.095	-58.560	910.818	4.390	-121.891	810.008	75.567	412.880	1296.797	106.947	244.330	1280.617	-70.717	329.740	1294.655	154.812	423.340	1160.814	182.713	518.992	1031.000	280.388	467.168	1030.162	372.761	476.412	960.813	122.947	97.711	857.192	-123.056	163.925	905.228	-131.753	215.223	905.901	-125.901	270.096	925.321	97.967	365.791	855.801	156.241	47.768	673.680	19.897	62.360	603.549	56.789	79.353	540.439	166.719	88.603	440.216	242.783	73.663	327.522	272.500	89.727	260.449	141.048	127.618	298.291	169.535	135.644	227.671	323.053	124.174	76.896	278.652	185.879	26.163	447.947	87.611	73.118	-7.674	401.640	596.226	-14.683	372.809	518.127	-150.526	385.759	621.797	-167.747	369.412	548.287	-145.008	376.509	456.787	-146.565	382.675	352.982	-241.139	369.709	404.310	-282.607	370.734	335.938	-315.841	357.490	94.458	-410.432	323.978	72.011	-233.008	371.368	22.045	24.175	132.876	806.085	5.199	327.296	786.340
	260	1.29500	39.262	40.577	1301.107	104.026	188.143	1285.835	57.624	25.130	1073.613	-51.202	-47.410	1004.776	42.317	-58.584	909.246	11.841	-122.691	808.664	82.690	411.465	1295.536	113.787	243.455	1279.725	-63.538	328.485	1293.258	162.062	421.464	1159.619	189.223	518.152	1029.473	286.474	465.646	1029.589	379.483	475.410	959.942	130.642	97.394	856.353	-115.475	165.083	902.822	-124.631	215.053	905.475	-117.723	269.155	923.842	105.868	365.318	854.771	164.918	47.426	672.650	28.647	62.174	602.689	65.686	79.618	539.488	172.804	88.500	438.547	249.498	74.482	325.963	278.348	90.684	258.839	147.629	127.897	296.982	175.268	136.458	226.627	327.073	125.664	76.280	281.084	184.512	27.475	451.356	89.255	68.404	-0.804	401.171	595.350	-7.707	372.428	516.908	-143.369	385.079	620.848	-160.388	368.756	547.310	-137.525	376.628	455.744	-141.664	383.545	352.916	-235.694	369.514	404.083	-276.892	370.599	337.493	-313.913	357.854	96.033	-408.970	324.060	75.699	-232.058	370.766	22.398	31.877	132.703	804.879	13.272	327.172	785.266
	261	1.30000	46.710	39.306	1300.006	111.147	186.900	1285.064	64.910	23.963	1072.441	-44.045	-47.604	1003.469	49.932	-59.197	908.125	18.649	-122.979	806.074	90.021	409.908	1294.683	120.857	242.231	1278.751	-56.196	326.915	1292.497	168.966	420.257	1157.737	195.950	517.252	1028.612	292.912	464.509	1028.308	385.926	475.078	958.972	139.042	96.993	855.812	-107.390	164.265	902.021	-116.732	213.170	903.556	-110.479	268.402	922.146	112.967	364.941	853.641	173.198	46.922	671.798	36.639	62.260	601.940	72.858	79.989	539.244	178.801	89.047	437.695	256.538	75.222	325.065	285.330	91.443	258.214	154.022	128.290	295.914	181.583	136.669	225.534	331.017	125.235	76.135	283.060	184.652	28.422	454.365	90.512	64.091	6.229	400.478	594.167	-0.660	372.784	516.046	-136.480	384.168	620.062	-153.609	368.451	546.148	-131.236	375.018	454.876	-135.864	382.787	351.725	-229.217	368.704	405.505	-272.015	370.032	338.743	-312.426	358.142	97.369	-407.690	324.065	79.009	-231.459	370.712	22.760	40.264	131.844	804.109	20.845	326.164	783.822
	262	1.30500	53.551	38.309	1298.894	117.881	185.482	1284.196	72.261	23.040	1071.626	-36.896	-48.688	1002.321	57.074	-59.539	906.586	26.733	-123.465	805.269	96.925	408.717	1293.470	127.938	241.095	1278.310	-49.682	325.256	1291.647	175.615	418.186	1156.300	202.133	515.964	1028.031	299.544	463.608	1026.743	391.706	473.925	957.484	147.346	96.497	855.808	-99.578	161.400	901.472	-109.156	213.255	902.571	-102.438	267.338	921.364	120.118	364.761	852.685	181.301	46.612	670.451	44.085	62.162	601.712	80.134	80.407	538.512	184.832	90.179	436.625	263.372	75.726	324.761	291.979	92.199	257.732	160.702	128.203	295.796	188.068	136.235	225.812	334.103	125.811	74.562	284.755	186.149	29.049	458.171	91.384	60.166	13.896	400.923	593.580	6.304	372.689	515.008	-128.827	383.401	619.169	-145.899	367.758	545.559	-122.613	375.296	453.379	-130.063	383.158	351.440	-219.881	366.275	406.833	-266.713	369.783	340.437	-310.151	358.372	99.619	-405.831	324.144	83.107	-231.641	371.324	22.568	48.507	130.929	803.786	28.343	325.111	782.917
	263	1.31000	60.885	36.473	1298.121	125.579	184.088	1283.582	79.638	22.008	1070.281	-29.270	-49.466	1001.057	64.836	-60.972	905.512	33.717	-123.479	803.807	103.594	407.404	1293.181	135.084	239.504	1277.986	-42.867	323.905	1291.278	181.410	416.358	1155.451	207.150	515.139	1026.539	305.681	461.919	1025.991	397.660	473.661	956.227	155.407	95.940	855.772	-91.804	162.736	900.123	-101.522	211.769	901.753	-95.104	266.910	919.773	128.408	364.104	851.635	188.562	45.850	669.229	50.938	62.108	601.965	87.089	80.058	538.482	190.713	90.112	436.606	270.971	76.352	324.794	299.602	92.756	257.174	167.600	127.728	296.280	194.500	135.861	225.955	338.012	126.250	73.368	287.746	185.493	30.295	461.212	91.266	57.037	21.457	400.300	592.797	14.289	372.341	514.153	-121.251	382.833	618.303	-138.093	367.120	544.642	-114.879	376.018	453.806	-123.794	383.852	350.313	-214.966	367.077	407.237	-260.726	369.034	341.818	-307.647	358.674	101.407	-403.594	324.166	86.747	-231.547	371.179	22.738	56.568	130.244	803.339	36.592	324.363	781.712
	264	1.31500	68.599	35.484	1297.499	132.265	183.443	1283.021	87.691	21.139	1070.054	-21.342	-49.898	999.942	71.549	-61.356	904.135	40.738	-124.204	801.517	109.877	406.649	1292.417	142.310	238.333	1277.261	-36.261	322.291	1290.642	188.558	413.855	1154.298	213.259	514.488	1026.308	311.258	460.681	1024.936	403.578	473.203	954.733	163.603	95.829	855.286	-83.767	159.470	900.375	-93.633	211.065	900.954	-87.263	266.320	919.079	135.814	363.738	851.353	196.301	45.421	668.629	57.573	62.505	602.282	92.977	80.972	538.212	197.019	90.631	436.232	279.389	76.260	325.326	306.159	92.718	257.123	175.262	127.516	297.435	200.990	134.626	227.186	340.591	125.593	72.926	290.007	186.902	31.027	463.165	91.793	52.727	29.557	399.924	591.527	21.933	372.182	513.676	-113.501	381.901	617.807	-130.365	366.035	544.366	-107.100	374.558	452.653	-117.926	384.052	350.096	-208.267	367.008	408.354	-254.546	368.640	344.045	-305.351	359.175	103.968	-401.454	324.440	90.962	-229.632	370.829	22.278	64.842	129.468	802.965	44.023	323.493	781.289
